<svg id="visual" viewBox="0 0 900 600" width="900" height="600" xmlns="http://www.w3.org/2000/svg" xmlns:xlink="http://www.w3.org/1999/xlink" version="1.1"><rect x="0" y="0" width="900" height="600" fill="#001220"></rect><path d="M0 260L10.7 252.5C21.3 245 42.7 230 64.2 223.8C85.7 217.7 107.3 220.3 128.8 224.7C150.3 229 171.7 235 193 228.5C214.3 222 235.7 203 257 207.2C278.3 211.3 299.7 238.7 321.2 247.5C342.7 256.3 364.3 246.7 385.8 238C407.3 229.3 428.7 221.7 450 220.2C471.3 218.7 492.7 223.3 514.2 229.2C535.7 235 557.3 242 578.8 240.7C600.3 239.3 621.7 229.7 643 224.3C664.3 219 685.7 218 707 220.2C728.3 222.3 749.7 227.7 771.2 224.5C792.7 221.3 814.3 209.7 835.8 211.8C857.3 214 878.7 230 889.3 238L900 246L900 601L889.3 601C878.7 601 857.3 601 835.8 601C814.3 601 792.7 601 771.2 601C749.7 601 728.3 601 707 601C685.7 601 664.3 601 643 601C621.7 601 600.3 601 578.8 601C557.3 601 535.7 601 514.2 601C492.7 601 471.3 601 450 601C428.7 601 407.3 601 385.8 601C364.3 601 342.7 601 321.2 601C299.7 601 278.3 601 257 601C235.7 601 214.3 601 193 601C171.7 601 150.3 601 128.8 601C107.3 601 85.7 601 64.2 601C42.7 601 21.3 601 10.7 601L0 601Z" fill="#f7770f"></path><path d="M0 266L10.7 266.7C21.3 267.3 42.7 268.7 64.2 271C85.7 273.3 107.3 276.7 128.8 274.3C150.3 272 171.7 264 193 266.3C214.3 268.7 235.7 281.3 257 283.7C278.3 286 299.7 278 321.2 267.3C342.7 256.7 364.3 243.3 385.8 246.5C407.3 249.7 428.7 269.3 450 274.7C471.3 280 492.7 271 514.2 263.7C535.7 256.3 557.3 250.7 578.8 256.5C600.3 262.3 621.7 279.7 643 285.7C664.3 291.7 685.7 286.3 707 278.2C728.3 270 749.7 259 771.2 262.5C792.7 266 814.3 284 835.8 292.8C857.3 301.7 878.7 301.3 889.3 301.2L900 301L900 601L889.3 601C878.7 601 857.3 601 835.8 601C814.3 601 792.7 601 771.2 601C749.7 601 728.3 601 707 601C685.7 601 664.3 601 643 601C621.7 601 600.3 601 578.8 601C557.3 601 535.7 601 514.2 601C492.7 601 471.3 601 450 601C428.7 601 407.3 601 385.8 601C364.3 601 342.7 601 321.2 601C299.7 601 278.3 601 257 601C235.7 601 214.3 601 193 601C171.7 601 150.3 601 128.8 601C107.3 601 85.7 601 64.2 601C42.7 601 21.3 601 10.7 601L0 601Z" fill="#f9891c"></path><path d="M0 306L10.7 309C21.3 312 42.7 318 64.2 323.7C85.7 329.3 107.3 334.7 128.8 334.8C150.3 335 171.7 330 193 324.2C214.3 318.3 235.7 311.7 257 314.2C278.3 316.7 299.7 328.3 321.2 323C342.7 317.7 364.3 295.3 385.8 288.8C407.3 282.3 428.7 291.7 450 301.5C471.3 311.3 492.7 321.7 514.2 327.3C535.7 333 557.3 334 578.8 325.2C600.3 316.3 621.7 297.7 643 290.8C664.3 284 685.7 289 707 292.2C728.3 295.3 749.7 296.7 771.2 299.3C792.7 302 814.3 306 835.8 311.2C857.3 316.3 878.7 322.7 889.3 325.8L900 329L900 601L889.3 601C878.7 601 857.3 601 835.8 601C814.3 601 792.7 601 771.2 601C749.7 601 728.3 601 707 601C685.7 601 664.3 601 643 601C621.7 601 600.3 601 578.8 601C557.3 601 535.7 601 514.2 601C492.7 601 471.3 601 450 601C428.7 601 407.3 601 385.8 601C364.3 601 342.7 601 321.2 601C299.7 601 278.3 601 257 601C235.7 601 214.3 601 193 601C171.7 601 150.3 601 128.8 601C107.3 601 85.7 601 64.2 601C42.7 601 21.3 601 10.7 601L0 601Z" fill="#fb9b2a"></path><path d="M0 359L10.7 356.7C21.3 354.3 42.7 349.7 64.2 348.5C85.7 347.3 107.3 349.7 128.8 355C150.3 360.3 171.7 368.7 193 372.8C214.3 377 235.7 377 257 373.3C278.3 369.7 299.7 362.3 321.2 362.2C342.7 362 364.3 369 385.8 366C407.3 363 428.7 350 450 343.8C471.3 337.7 492.7 338.3 514.2 341.8C535.7 345.3 557.3 351.7 578.8 351.2C600.3 350.7 621.7 343.3 643 344.8C664.3 346.3 685.7 356.7 707 355.5C728.3 354.3 749.7 341.7 771.2 341.3C792.7 341 814.3 353 835.8 353.5C857.3 354 878.7 343 889.3 337.5L900 332L900 601L889.3 601C878.7 601 857.3 601 835.8 601C814.3 601 792.7 601 771.2 601C749.7 601 728.3 601 707 601C685.7 601 664.3 601 643 601C621.7 601 600.3 601 578.8 601C557.3 601 535.7 601 514.2 601C492.7 601 471.3 601 450 601C428.7 601 407.3 601 385.8 601C364.3 601 342.7 601 321.2 601C299.7 601 278.3 601 257 601C235.7 601 214.3 601 193 601C171.7 601 150.3 601 128.8 601C107.3 601 85.7 601 64.2 601C42.7 601 21.3 601 10.7 601L0 601Z" fill="#fcac39"></path><path d="M0 416L10.7 414C21.3 412 42.7 408 64.2 398.5C85.7 389 107.3 374 128.8 371C150.3 368 171.7 377 193 382.2C214.3 387.3 235.7 388.7 257 384.8C278.3 381 299.7 372 321.2 375.5C342.7 379 364.3 395 385.8 394.3C407.3 393.7 428.7 376.3 450 370.2C471.3 364 492.7 369 514.2 377.2C535.7 385.3 557.3 396.7 578.8 398.8C600.3 401 621.7 394 643 388.5C664.3 383 685.7 379 707 384.2C728.3 389.3 749.7 403.7 771.2 406.5C792.7 409.3 814.3 400.7 835.8 398.8C857.3 397 878.7 402 889.3 404.5L900 407L900 601L889.3 601C878.7 601 857.3 601 835.8 601C814.3 601 792.7 601 771.2 601C749.7 601 728.3 601 707 601C685.7 601 664.3 601 643 601C621.7 601 600.3 601 578.8 601C557.3 601 535.7 601 514.2 601C492.7 601 471.3 601 450 601C428.7 601 407.3 601 385.8 601C364.3 601 342.7 601 321.2 601C299.7 601 278.3 601 257 601C235.7 601 214.3 601 193 601C171.7 601 150.3 601 128.8 601C107.3 601 85.7 601 64.2 601C42.7 601 21.3 601 10.7 601L0 601Z" fill="#fcaf3c"></path><path d="M0 411L10.7 417.3C21.3 423.7 42.7 436.3 64.2 442.5C85.7 448.7 107.3 448.3 128.8 440.5C150.3 432.7 171.7 417.3 193 415C214.3 412.7 235.7 423.3 257 430.7C278.3 438 299.7 442 321.2 437.3C342.7 432.7 364.3 419.3 385.8 413.2C407.3 407 428.7 408 450 409C471.3 410 492.7 411 514.2 414C535.7 417 557.3 422 578.8 428.2C600.3 434.3 621.7 441.7 643 441.2C664.3 440.7 685.7 432.3 707 427.8C728.3 423.3 749.7 422.7 771.2 424C792.7 425.3 814.3 428.7 835.8 433.5C857.3 438.3 878.7 444.7 889.3 447.8L900 451L900 601L889.3 601C878.7 601 857.3 601 835.8 601C814.3 601 792.7 601 771.2 601C749.7 601 728.3 601 707 601C685.7 601 664.3 601 643 601C621.7 601 600.3 601 578.8 601C557.3 601 535.7 601 514.2 601C492.7 601 471.3 601 450 601C428.7 601 407.3 601 385.8 601C364.3 601 342.7 601 321.2 601C299.7 601 278.3 601 257 601C235.7 601 214.3 601 193 601C171.7 601 150.3 601 128.8 601C107.3 601 85.7 601 64.2 601C42.7 601 21.3 601 10.7 601L0 601Z" fill="#fcac39"></path><path d="M0 485L10.7 484.8C21.3 484.7 42.7 484.3 64.2 485C85.7 485.7 107.3 487.3 128.8 486.8C150.3 486.3 171.7 483.7 193 482.2C214.3 480.7 235.7 480.3 257 480.5C278.3 480.7 299.7 481.3 321.2 478.7C342.7 476 364.3 470 385.8 470.2C407.3 470.3 428.7 476.7 450 479.3C471.3 482 492.7 481 514.2 477.8C535.7 474.7 557.3 469.3 578.8 470.2C600.3 471 621.7 478 643 479C664.3 480 685.7 475 707 470.7C728.3 466.3 749.7 462.7 771.2 463.7C792.7 464.7 814.3 470.3 835.8 475.3C857.3 480.3 878.7 484.7 889.3 486.8L900 489L900 601L889.3 601C878.7 601 857.3 601 835.8 601C814.3 601 792.7 601 771.2 601C749.7 601 728.3 601 707 601C685.7 601 664.3 601 643 601C621.7 601 600.3 601 578.8 601C557.3 601 535.7 601 514.2 601C492.7 601 471.3 601 450 601C428.7 601 407.3 601 385.8 601C364.3 601 342.7 601 321.2 601C299.7 601 278.3 601 257 601C235.7 601 214.3 601 193 601C171.7 601 150.3 601 128.8 601C107.3 601 85.7 601 64.2 601C42.7 601 21.3 601 10.7 601L0 601Z" fill="#fb9b2a"></path><path d="M0 516L10.7 516.3C21.3 516.7 42.7 517.3 64.2 519.5C85.7 521.7 107.3 525.3 128.8 525C150.3 524.7 171.7 520.3 193 518.3C214.3 516.3 235.7 516.7 257 514C278.3 511.3 299.7 505.7 321.2 501.5C342.7 497.3 364.3 494.7 385.8 496.8C407.3 499 428.7 506 450 509.2C471.3 512.3 492.7 511.7 514.2 512.2C535.7 512.7 557.3 514.3 578.8 511.2C600.3 508 621.7 500 643 497C664.3 494 685.7 496 707 500.2C728.3 504.3 749.7 510.7 771.2 509C792.7 507.3 814.3 497.7 835.8 497C857.3 496.3 878.7 504.7 889.3 508.8L900 513L900 601L889.3 601C878.7 601 857.3 601 835.8 601C814.3 601 792.7 601 771.2 601C749.7 601 728.3 601 707 601C685.7 601 664.3 601 643 601C621.7 601 600.3 601 578.8 601C557.3 601 535.7 601 514.2 601C492.7 601 471.3 601 450 601C428.7 601 407.3 601 385.8 601C364.3 601 342.7 601 321.2 601C299.7 601 278.3 601 257 601C235.7 601 214.3 601 193 601C171.7 601 150.3 601 128.8 601C107.3 601 85.7 601 64.2 601C42.7 601 21.3 601 10.7 601L0 601Z" fill="#f9891c"></path><path d="M0 566L10.7 563.7C21.3 561.3 42.7 556.7 64.2 557.2C85.7 557.7 107.3 563.3 128.8 560.7C150.3 558 171.7 547 193 546.5C214.3 546 235.7 556 257 555.7C278.3 555.3 299.7 544.7 321.2 543.8C342.7 543 364.3 552 385.8 552.7C407.3 553.3 428.7 545.7 450 544.7C471.3 543.7 492.7 549.3 514.2 554C535.7 558.7 557.3 562.3 578.8 559.8C600.3 557.3 621.7 548.7 643 544.7C664.3 540.7 685.7 541.3 707 544.7C728.3 548 749.7 554 771.2 556.5C792.7 559 814.3 558 835.8 554.2C857.3 550.3 878.7 543.7 889.3 540.3L900 537L900 601L889.3 601C878.7 601 857.3 601 835.8 601C814.3 601 792.7 601 771.2 601C749.7 601 728.3 601 707 601C685.7 601 664.3 601 643 601C621.7 601 600.3 601 578.8 601C557.3 601 535.7 601 514.2 601C492.7 601 471.3 601 450 601C428.7 601 407.3 601 385.8 601C364.3 601 342.7 601 321.2 601C299.7 601 278.3 601 257 601C235.7 601 214.3 601 193 601C171.7 601 150.3 601 128.8 601C107.3 601 85.7 601 64.2 601C42.7 601 21.3 601 10.7 601L0 601Z" fill="#f7770f"></path></svg>